<?xml version="1.0" encoding="UTF-8"?>
<svg width="15px" height="15px" viewBox="0 0 15 15" version="1.1" xmlns="http://www.w3.org/2000/svg" xmlns:xlink="http://www.w3.org/1999/xlink">
    <!-- Generator: Sketch 47.1 (45422) - http://www.bohemiancoding.com/sketch -->
    <title>noun_1217919_cc</title>
    <desc>Created with Sketch.</desc>
    <defs></defs>
    <g id="Page-1" stroke="none" stroke-width="1" fill="none" fill-rule="evenodd">
        <g id="Tablet" transform="translate(-319.000000, -526.000000)" fill-rule="nonzero" fill="#D44946">
            <g id="noun_1217919_cc" transform="translate(319.000000, 526.000000)">
                <path d="M12.75,0 L2.25,0 C1.0125,0 0,1.0125 0,2.25 L0,12.75 C0,13.9875 1.0125,15 2.25,15 L12.75,15 C13.9875,15 15,13.9875 15,12.75 L15,2.25 C15,1.0125 13.9875,0 12.75,0 Z M11.85,10.4625 C12.28125,10.89375 12.28125,11.60625 11.85,12.05625 C11.64375,12.2625 11.34375,12.375 11.0625,12.375 C10.78125,12.375 10.48125,12.2625 10.275,12.0375 L7.5,9.28125 L4.725,12.0375 C4.51875,12.2625 4.21875,12.375 3.9375,12.375 C3.65625,12.375 3.35625,12.2625 3.15,12.0375 C2.71875,11.60625 2.71875,10.89375 3.15,10.44375 L5.90625,7.6875 L3.15,4.9125 C2.71875,4.48125 2.71875,3.76875 3.15,3.31875 C3.58125,2.8875 4.29375,2.8875 4.74375,3.31875 L7.5,6.09375 L10.275,3.31875 C10.70625,2.8875 11.41875,2.8875 11.86875,3.31875 C12.3,3.75 12.3,4.4625 11.86875,4.9125 L9.09375,7.6875 L11.85,10.4625 Z" id="Shape"></path>
            </g>
        </g>
    </g>
</svg>